<svg width="32" height="32" viewBox="0 0 32 32" fill="none" xmlns="http://www.w3.org/2000/svg">
<g clip-path="url(#clip0_27_2)">
<path d="M23.4304 2.81525C22.5976 3.63867 21.8347 4.53112 21.1565 5.48274L20.942 5.41371C19.7053 5.01432 18.4237 4.76779 17.1321 4.68397C16.7432 4.65439 15.292 4.65439 14.8183 4.68397C13.3871 4.77765 12.29 4.98967 11.0433 5.41864C10.9935 5.43836 10.9486 5.45315 10.9037 5.46794C10.2006 4.52126 9.41764 3.63374 8.55493 2.82018C12.6939 0.724648 17.5361 0.473183 21.8696 2.12496C22.3333 2.29753 22.7871 2.49969 23.2309 2.71664L23.4304 2.81525Z" fill="#F00500"/>
<path d="M31.1499 21.5173C30.5216 23.2874 29.5791 24.9293 28.3573 26.3592C27.6941 27.1284 26.961 27.8335 26.1731 28.4745C24.328 29.9438 22.1737 30.994 19.8748 31.5463C17.3316 32.1527 14.6786 32.1527 12.1354 31.5463C9.83151 30.994 7.68223 29.9438 5.83713 28.4745C5.04922 27.8335 4.31617 27.1284 3.65293 26.3592C0.137265 22.252 -0.9299 16.6113 0.860345 11.5278C1.19944 10.586 1.62332 9.67877 2.13197 8.8159C2.36634 8.42145 2.65558 7.97769 2.79521 7.79526C3.27394 9.83162 3.86237 11.6214 4.08179 12.2674C4.06683 12.3019 4.04688 12.3413 4.02693 12.3758C2.86502 14.7031 2.23669 16.9466 2.08709 19.333C2.08709 19.3626 2.0821 19.3971 2.0821 19.4267C2.04221 20.1416 2.06215 20.4819 2.18183 20.9305C2.55584 22.3358 3.70778 23.884 5.51299 25.4027C8.47013 27.8877 12.4795 29.6825 15.5164 29.8896C18.683 30.1016 23.3556 28.2723 26.4673 25.5999C26.956 25.1709 27.4148 24.7173 27.8437 24.2341C28.1528 23.8791 28.6116 23.2677 28.5767 23.2677C28.5668 23.2677 28.5767 23.2578 28.5967 23.248C28.6116 23.2381 28.6266 23.2233 28.6166 23.2134C28.6116 23.2085 28.6216 23.1937 28.6366 23.1888C28.6515 23.1839 28.6615 23.174 28.6565 23.1641C28.6515 23.1543 28.6565 23.1444 28.6765 23.1395C28.6914 23.1345 28.6964 23.1198 28.6914 23.1099C28.6864 23.1 28.6914 23.0902 28.7014 23.0902C28.7114 23.0902 28.7213 23.0754 28.7213 23.0655C28.7213 23.0557 28.7313 23.0409 28.7413 23.0409C28.7513 23.0409 28.7612 23.031 28.7612 23.0211C28.7762 22.9817 28.8011 22.9422 28.8261 22.9077C28.9009 22.7943 29.2001 22.2667 29.24 22.178C29.5242 21.5419 29.7037 20.9749 29.7885 20.4079C29.8284 20.1367 29.8533 19.6387 29.8334 19.5204C29.8284 19.5007 29.8284 19.4661 29.8234 19.4119C29.8134 19.3133 29.8085 19.1654 29.7985 19.0174C29.7885 18.7956 29.7686 18.4849 29.7536 18.3321C29.5392 16.0936 28.9607 14.2643 27.8636 12.3265C27.8187 12.2526 27.7788 12.1786 27.7539 12.1194C27.7439 12.1047 27.7389 12.0899 27.734 12.08C27.8886 11.6215 28.5219 9.70342 29.0255 7.50928L29.0355 7.51914L29.1103 7.61775C29.24 7.79033 29.584 8.30311 29.7386 8.54965C30.4418 9.6837 30.9903 10.9016 31.3793 12.1737C32.2819 15.2356 32.2071 18.4997 31.1499 21.5173Z" fill="#F00500"/>
<path d="M24.677 15.625C24.6621 15.7039 24.4277 15.9406 24.1933 16.1131C23.5052 16.6111 22.2734 17.0746 21.0217 17.2965C20.3086 17.4247 19.5955 17.4444 19.3811 17.3409C19.2415 17.2718 19.2215 17.2176 19.2714 17.0401C19.3761 16.6703 19.7152 16.266 20.2438 15.8863C20.5131 15.694 21.6052 15.0383 22.1138 14.7621C22.9516 14.3085 23.6298 14.0373 24.0886 13.9732C24.2332 13.9535 24.4078 13.9486 24.4626 13.9732C24.5524 14.0077 24.6521 14.2691 24.692 14.5846C24.712 14.7523 24.702 15.4919 24.677 15.625Z" fill="black"/>
<path d="M12.9283 17.2571C12.8984 17.3163 12.7488 17.3804 12.5792 17.405C12.4097 17.4297 11.891 17.4149 11.5968 17.3804C10.5396 17.2423 9.41762 16.9218 8.59979 16.5274C8.14101 16.3055 7.81188 16.0836 7.56753 15.842L7.42791 15.699L7.41295 15.5117C7.38801 15.1862 7.393 14.6735 7.43289 14.491C7.45783 14.3382 7.51268 14.1902 7.58748 14.0571C7.62737 14.0078 7.62738 14.0078 7.8069 14.0078C8.02632 14.0078 8.21082 14.0423 8.51003 14.136C9.1234 14.3234 10.036 14.777 11.148 15.4377C12.0656 15.9801 12.4097 16.2463 12.674 16.6112C12.8535 16.838 12.9732 17.1585 12.9283 17.2571Z" fill="black"/>
<path d="M19.9894 24.1206C19.9894 24.1354 19.9296 24.3721 19.8548 24.6531C19.78 24.9342 19.7201 25.161 19.7201 25.1708C19.6653 25.1758 19.6154 25.1807 19.5605 25.1758H19.401L19.1815 25.6886C19.0619 25.9696 18.9522 26.2309 18.9372 26.2704L18.9073 26.3394L18.8026 26.1718L18.6978 26.0041V24.6383L18.6579 24.6482C18.5732 24.6679 17.9698 24.7468 17.7055 24.7715C16.6134 24.8799 15.5163 24.8553 14.4292 24.7024C14.2546 24.6778 14.105 24.6581 14.1 24.663C14.0951 24.6679 14.1 24.9835 14.11 25.373L14.125 26.0732L14.0402 26.2014C13.9953 26.2704 13.9504 26.3295 13.9504 26.3345C13.9355 26.3493 13.8856 26.2704 13.7709 26.0436C13.6463 25.8069 13.5565 25.5554 13.4917 25.2941L13.4568 25.1511L13.3022 25.161L13.1476 25.1758L13.1077 24.9933C13.0877 24.8947 13.0628 24.7419 13.0528 24.6581L13.0379 24.5003L12.9082 24.3869C12.8334 24.3228 12.7586 24.2587 12.7437 24.2488C12.7187 24.2291 12.7087 24.1946 12.7087 24.165V24.1058L13.3321 24.1108L13.9554 24.1157L13.9754 24.1798L13.9953 24.2439L14.2098 24.2537C14.3294 24.2587 14.7084 24.2685 15.0475 24.2784L15.6709 24.2932L15.8305 24.0467L15.995 23.8001H16.2045L16.1995 23.2873L16.1945 22.7745L15.9202 22.6562C15.0376 22.2716 14.5189 21.8328 14.3244 21.3003C14.2846 21.1918 14.2846 21.1524 14.2746 20.6593C14.2696 20.1712 14.2696 20.1268 14.3045 20.0183C14.3743 19.7718 14.5688 19.5795 14.8181 19.5154C14.9029 19.4907 15.1273 19.4907 16.3042 19.4907L17.6905 19.4957L17.8451 19.5696C18.0296 19.6584 18.1144 19.7225 18.2191 19.8605C18.3388 20.0183 18.3737 20.1416 18.3737 20.4423C18.3737 20.8713 18.3438 21.2411 18.2989 21.389C18.2341 21.5912 18.1343 21.7835 18.0097 21.9561C17.7603 22.2716 17.3065 22.5872 16.8926 22.7302L16.7729 22.7745L16.7779 23.2923L16.7829 23.81L16.8926 23.8198L17.0023 23.8297L17.1519 24.0516L17.2966 24.2735H17.9648C18.3338 24.2735 18.6579 24.2784 18.6879 24.2833C18.7377 24.2932 18.7477 24.2883 18.7976 24.2044L18.8574 24.1157H19.4309C19.8597 24.096 19.9894 24.1058 19.9894 24.1206Z" fill="black"/>
<path d="M17.3565 25.5357C17.2617 25.5899 17.1969 25.6146 17.1819 25.6047C17.167 25.5998 17.0971 25.5406 17.0223 25.4864L16.8877 25.3779L16.7481 25.5258C16.4439 25.8512 16.4339 25.866 16.3441 25.871C16.2045 25.8858 16.1746 25.8611 16.005 25.6096C15.9153 25.4814 15.8455 25.373 15.8455 25.373C15.8455 25.373 15.7806 25.3631 15.7058 25.3582L15.5662 25.3434L15.5014 25.4765L15.4366 25.6096L15.3219 25.5751C15.2321 25.5455 15.1423 25.511 15.0576 25.4716L14.908 25.3976V25.1166L16.2344 25.1215L17.5609 25.1264L17.5659 25.2596C17.5709 25.4173 17.5759 25.4124 17.3565 25.5357Z" fill="black"/>
<path d="M29.8235 19.5204C29.8185 19.5006 29.8185 19.4661 29.8135 19.4119C28.6167 19.2837 25.2007 19.2048 22.0292 21.7934C22.0292 21.7934 21.0069 17.1586 16.2196 17.1586C11.4323 17.1586 9.65703 21.7934 9.65703 21.7934C6.97416 18.9385 3.38369 19.1456 2.08714 19.333C2.08714 19.3626 2.08215 19.3971 2.08215 19.4267C2.04225 20.1416 2.0622 20.4818 2.18188 20.9305C2.55589 22.3358 3.70783 23.884 5.51304 25.4026C8.47018 27.8877 12.4795 29.6825 15.5165 29.8895C18.6831 30.1016 23.3556 28.2723 26.4674 25.5999C26.9561 25.1709 27.4149 24.7173 27.8437 24.2341C28.1529 23.8791 28.6117 23.2677 28.5768 23.2677C28.5668 23.2677 28.5768 23.2578 28.5967 23.2479C28.6117 23.2381 28.6266 23.2233 28.6167 23.2134C28.6117 23.2085 28.6217 23.1937 28.6366 23.1888C28.6516 23.1838 28.6615 23.174 28.6566 23.1641C28.6516 23.1543 28.6566 23.1444 28.6765 23.1395C28.6915 23.1345 28.6965 23.1197 28.6915 23.1099C28.6865 23.1 28.6915 23.0902 28.7014 23.0902C28.7114 23.0902 28.7214 23.0754 28.7214 23.0655C28.7214 23.0556 28.7314 23.0408 28.7413 23.0408C28.7513 23.0408 28.7613 23.031 28.7613 23.0211C28.7762 22.9817 28.8012 22.9422 28.8261 22.9077C28.9009 22.7943 29.2001 22.2667 29.24 22.178C29.5243 21.5419 29.7038 20.9749 29.7886 20.4079C29.8185 20.1367 29.8434 19.6387 29.8235 19.5204ZM17.3566 25.5358C17.2618 25.59 17.197 25.6147 17.182 25.6048C17.1671 25.5999 17.0973 25.5407 17.0225 25.4865L16.8878 25.378L16.7482 25.5259C16.444 25.8513 16.434 25.8661 16.3443 25.8711C16.2046 25.8858 16.1747 25.8612 16.0052 25.6097C15.9154 25.4815 15.8456 25.3731 15.8456 25.3731C15.8456 25.3731 15.7808 25.3632 15.706 25.3583L15.5663 25.3435L15.5015 25.4766L15.4367 25.6097L15.322 25.5752C15.2322 25.5456 15.1425 25.5111 15.0577 25.4717L14.9081 25.3977V25.1167L16.2346 25.1216L17.561 25.1265L17.566 25.2596C17.571 25.4174 17.576 25.4125 17.3566 25.5358ZM19.85 24.6482C19.7752 24.9293 19.7153 25.1561 19.7153 25.166C19.6605 25.1709 19.6106 25.1758 19.5557 25.1709H19.3962L19.1817 25.6886C19.062 25.9697 18.9523 26.231 18.9374 26.2704L18.9075 26.3395L18.8027 26.1718L18.698 26.0042V24.6384L18.6581 24.6482C18.5733 24.668 17.9699 24.7469 17.7056 24.7715C16.6136 24.88 15.5165 24.8553 14.4293 24.7025C14.2548 24.6778 14.1052 24.6581 14.1002 24.663C14.0952 24.668 14.1002 24.9835 14.1102 25.3731L14.1252 26.0732L14.0404 26.2014C13.9955 26.2704 13.9506 26.3296 13.9506 26.3345C13.9357 26.3493 13.8858 26.2704 13.7711 26.0436C13.6464 25.807 13.5567 25.5555 13.4918 25.2942L13.4569 25.1512L13.3023 25.161L13.1478 25.1758L13.1079 24.9934C13.0879 24.8948 13.063 24.7419 13.053 24.6581L13.0381 24.5003L12.9084 24.3869C12.8336 24.3228 12.7588 24.2587 12.7438 24.2489C12.7189 24.2291 12.7089 24.1946 12.7089 24.165V24.1059L13.3323 24.1108L13.9556 24.1157L13.9756 24.1798L13.9955 24.2439L14.2099 24.2538C14.3296 24.2587 14.7086 24.2686 15.0477 24.2784L15.6711 24.2932L15.8306 24.0467L15.9952 23.8002H16.2046L16.1996 23.2874L16.1947 22.7746L15.9204 22.6563C15.0377 22.2717 14.5191 21.8328 14.3246 21.3003C14.2847 21.1919 14.2847 21.1524 14.2748 20.6593C14.2698 20.1712 14.2698 20.1268 14.3047 20.0184C14.3745 19.7718 14.569 19.5795 14.8183 19.5154C14.9031 19.4908 15.1275 19.4908 16.3044 19.4908L17.6907 19.4957L17.8453 19.5697C18.0298 19.6584 18.1146 19.7225 18.2193 19.8606C18.339 20.0184 18.3739 20.1416 18.3739 20.4424C18.3739 20.8714 18.344 21.2412 18.2991 21.3891C18.2342 21.5912 18.1345 21.7835 18.0098 21.9561C17.7605 22.2717 17.3067 22.5872 16.8928 22.7302L16.7731 22.7746L16.7781 23.2923L16.7831 23.81L16.8928 23.8199L17.0025 23.8298L17.1521 24.0516L17.2967 24.2735H17.965C18.334 24.2735 18.6581 24.2784 18.688 24.2834C18.7379 24.2932 18.7479 24.2883 18.7977 24.2045L18.8576 24.1157H19.4311C19.8749 24.1157 20.0045 24.1207 20.0045 24.1355C19.9896 24.1305 19.9248 24.3721 19.85 24.6482Z" fill="white"/>
<path d="M29.7836 19.0175C29.7736 18.7956 29.7536 18.4849 29.7387 18.3321C29.5242 16.0936 28.9458 14.2643 27.8487 12.3265C27.8038 12.2526 27.7639 12.1786 27.739 12.1195C27.729 12.1047 27.724 12.0899 27.719 12.08C27.8736 11.6215 28.5069 9.70344 29.0106 7.50929C29.6938 4.53117 30.1276 1.05012 28.8012 0.0048228C28.8012 0.0048228 26.5073 -0.16282 23.4354 2.8153C22.6026 3.63872 21.8397 4.53117 21.1615 5.48279L20.947 5.41376C19.7103 5.01438 18.4287 4.76784 17.1371 4.68402C16.7482 4.65444 15.297 4.65444 14.8233 4.68402C13.3921 4.7777 12.295 4.98972 11.0483 5.41869C10.9985 5.43841 10.9536 5.4532 10.9087 5.468C10.2056 4.52131 9.42264 3.63379 8.55993 2.82023C5.36342 -0.172681 2.98474 -0.00010816 2.98474 -0.00010816C1.57847 1.07971 2.0572 4.71854 2.78527 7.79527C3.264 9.83163 3.85243 11.6215 4.07185 12.2674C4.05689 12.3019 4.03694 12.3413 4.017 12.3759C2.85508 14.7031 2.22675 16.9466 2.07715 19.333C3.37869 19.1457 6.96417 18.9336 9.65203 21.7934C9.65203 21.7934 11.4273 17.1586 16.2146 17.1586C21.0019 17.1586 22.0242 21.7934 22.0242 21.7934C25.1957 19.2048 28.6117 19.2886 29.8085 19.4119C29.8035 19.3133 29.7935 19.1654 29.7836 19.0175ZM5.01435 10.4085C5.01435 10.4085 3.1493 5.79835 3.62803 3.16538C3.70782 2.72162 3.85742 2.33209 4.0918 2.03625C4.0918 2.03625 6.20618 2.24334 9.61712 5.99065C9.61712 5.99065 8.96884 6.30128 8.10115 6.96199C8.10115 6.96199 8.09616 6.96692 8.09117 6.96692C7.14868 7.68186 5.94188 8.81592 5.01435 10.4085ZM12.9283 17.2572C12.8984 17.3164 12.7488 17.3805 12.5793 17.4051C12.4097 17.4298 11.8911 17.415 11.5969 17.3805C10.5397 17.2424 9.41765 16.9219 8.59982 16.5275C8.14104 16.3056 7.81191 16.0837 7.56756 15.8421L7.42794 15.6991L7.41297 15.5118C7.38804 15.1863 7.39303 14.6735 7.43292 14.4911C7.45786 14.3383 7.51271 14.1903 7.58751 14.0572C7.62741 14.0079 7.62741 14.0079 7.80693 14.0079C8.02635 14.0079 8.21086 14.0424 8.51006 14.1361C9.12343 14.3235 10.036 14.7771 11.1481 15.4378C12.0656 15.9802 12.4097 16.2464 12.674 16.6113C12.8535 16.8381 12.9732 17.1586 12.9283 17.2572ZM24.6771 15.6252C24.6622 15.7041 24.4278 15.9407 24.1934 16.1133C23.5052 16.6113 22.2735 17.0748 21.0218 17.2967C20.3087 17.4249 19.5956 17.4446 19.3812 17.341C19.2416 17.272 19.2216 17.2178 19.2715 17.0403C19.3762 16.6705 19.7153 16.2661 20.2439 15.8865C20.5132 15.6942 21.6053 15.0384 22.1139 14.7623C22.9517 14.3087 23.6299 14.0375 24.0887 13.9734C24.2333 13.9537 24.4078 13.9487 24.4627 13.9734C24.5524 14.0079 24.6522 14.2692 24.6921 14.5848C24.712 14.7524 24.702 15.492 24.6771 15.6252ZM23.8493 6.96199L23.8393 6.95706C23.0016 6.29635 22.3732 5.98572 22.3732 5.98572C25.6695 2.23841 27.7091 2.03133 27.7091 2.03133C27.9335 2.3321 28.0781 2.71669 28.1579 3.16045C28.6216 5.79342 26.8214 10.4085 26.8214 10.4085C26.0684 9.08217 25.0561 7.90868 23.8493 6.96199Z" fill="#FFA409"/>
<path d="M28.1627 3.16049C27.7737 3.11119 25.9336 3.10133 23.8491 6.96203L23.8392 6.9571C23.0014 6.29639 22.373 5.98576 22.373 5.98576C25.6693 2.23846 27.7089 2.03137 27.7089 2.03137C27.9383 2.33214 28.0829 2.71673 28.1627 3.16049Z" fill="#FF9300"/>
<path d="M26.8265 10.4085C26.0685 9.07722 25.0611 7.90866 23.8494 6.96197C25.9338 3.10126 27.7689 3.11112 28.1629 3.16043C28.6267 5.79833 26.8265 10.4085 26.8265 10.4085Z" fill="#FF8300"/>
<path d="M28.2376 3.17519C28.2127 3.17026 28.1878 3.16533 28.1628 3.1604L28.2376 3.17519Z" fill="#FF8300"/>
<path d="M9.61688 5.98576C9.61688 5.98576 8.96861 6.29639 8.10091 6.9571C8.10091 6.9571 8.09592 6.96203 8.09093 6.96203C5.93167 3.09639 4.03172 3.11119 3.6228 3.16049C3.70259 2.71673 3.8522 2.32721 4.08657 2.03137C4.09156 2.03137 6.20594 2.23846 9.61688 5.98576Z" fill="#FF9300"/>
<path d="M8.09602 6.96197C7.14854 7.68185 5.94175 8.81097 5.01422 10.4085C5.01422 10.4085 3.14917 5.79833 3.6279 3.16043C4.03182 3.11112 5.93676 3.10126 8.09602 6.96197Z" fill="#FF8300"/>
<path d="M3.62788 3.1604C3.60295 3.16533 3.57303 3.17026 3.5481 3.17519L3.62788 3.1604Z" fill="#FF8300"/>
<path d="M21.7797 12.9676C21.7797 12.9676 20.184 13.0662 20.3835 11.8335C20.5829 10.6009 21.8296 10.4529 22.1787 10.5023C22.5277 10.5516 23.924 11.0446 23.6747 12.0801C23.4254 13.1155 23.0763 12.9183 22.8768 12.9676C22.6773 13.0169 21.7797 12.9676 21.7797 12.9676Z" fill="white"/>
<path d="M10.0109 12.9676C10.0109 12.9676 8.4152 13.0662 8.61467 11.8335C8.81414 10.6009 10.0608 10.4529 10.4099 10.5023C10.759 10.5516 12.1552 11.0446 11.9059 12.0801C11.6566 13.1155 11.3075 12.9183 11.108 12.9676C10.9086 13.0169 10.0109 12.9676 10.0109 12.9676Z" fill="white"/>
</g>
<defs>
<clipPath id="clip0_27_2">
<rect width="32" height="32" fill="white"/>
</clipPath>
</defs>
</svg>
